<?xml version="1.0" encoding="utf-8"?>
<!-- Generator: Adobe Illustrator 18.1.1, SVG Export Plug-In . SVG Version: 6.00 Build 0)  -->
<svg version="1.1" id="Layer_1" xmlns="http://www.w3.org/2000/svg" xmlns:xlink="http://www.w3.org/1999/xlink" x="0px" y="0px"
	 viewBox="-427 87 144 127" enable-background="new -427 87 144 127" xml:space="preserve">
<g>
	<rect x="-427" y="87" fill="none" width="144" height="127"/>
	<g>
		<g>
			<path fill="#868482" d="M-283,177.3h-144V87h144V177.3z M-416.1,166.4h122.2V97.9h-122.2V166.4z"/>
		</g>
		<g>
			<rect x="-407.5" y="107.2" fill="#868482" width="11.7" height="11.7"/>
		</g>
		<g>
			<rect x="-388.9" y="107.2" fill="#868482" width="11.7" height="11.7"/>
		</g>
		<g>
			<rect x="-370.2" y="107.2" fill="#868482" width="11.7" height="11.7"/>
		</g>
		<g>
			<rect x="-351.5" y="107.2" fill="#868482" width="11.7" height="11.7"/>
		</g>
		<g>
			<rect x="-332.8" y="107.2" fill="#868482" width="11.7" height="11.7"/>
		</g>
		<g>
			<rect x="-314.1" y="107.2" fill="#868482" width="11.7" height="11.7"/>
		</g>
		<g>
			<rect x="-407.5" y="126.7" fill="#868482" width="11.7" height="11.7"/>
		</g>
		<g>
			<rect x="-388.9" y="126.7" fill="#868482" width="11.7" height="11.7"/>
		</g>
		<g>
			<rect x="-370.2" y="126.7" fill="#868482" width="11.7" height="11.7"/>
		</g>
		<g>
			<rect x="-351.5" y="126.7" fill="#868482" width="11.7" height="11.7"/>
		</g>
		<g>
			<rect x="-332.8" y="126.7" fill="#868482" width="11.7" height="11.7"/>
		</g>
		<g>
			<rect x="-314.1" y="126.7" fill="#868482" width="11.7" height="11.7"/>
		</g>
		<g>
			<rect x="-388.9" y="146.2" fill="#868482" width="67.7" height="11.7"/>
		</g>
		<g>
			<polygon fill="#868482" points="-355,202.2 -364.8,195.2 -381.1,195.2 -355,213.9 -328.9,195.2 -345.2,195.2 			"/>
		</g>
	</g>
</g>
</svg>
