<?xml version="1.0" encoding="utf-8"?>
<!-- Generator: Adobe Illustrator 18.1.1, SVG Export Plug-In . SVG Version: 6.00 Build 0)  -->
<svg version="1.1" id="Layer_1" xmlns="http://www.w3.org/2000/svg" xmlns:xlink="http://www.w3.org/1999/xlink" x="0px" y="0px"
	 viewBox="-425 77 148 148" enable-background="new -425 77 148 148" xml:space="preserve">
<g>
	<rect x="-425" y="77" fill="none" width="148" height="148"/>
	<g>
		<path fill="#868482" d="M-278.2,209.7c1.6,1.6,1.6,4.1,0,5.7l-8.5,8.5c-1.6,1.6-4.1,1.6-5.7,0l-44.6-44.6c-1.6-1.6-1.6-4.1,0-5.7
			l8.5-8.5c1.6-1.6,4.1-1.6,5.7,0L-278.2,209.7z"/>
		<path fill="#868482" d="M-367,89c25.4,0,46,20.6,46,46s-20.6,46-46,46c-25.4,0-46-20.6-46-46S-392.4,89-367,89 M-367,77
			c-32,0-58,26-58,58s26,58,58,58c32,0,58-26,58-58S-335,77-367,77L-367,77z"/>
	</g>
</g>
</svg>
